<?xml version="1.0" encoding="UTF-8"?>
<svg 
  xmlns="http://www.w3.org/2000/svg" 
  viewBox="0 0 1000 250.47" 
  fill="currentColor"
  preserveAspectRatio="xMidYMid meet">
  
  <rect fill="none"/>
  
  <g>
    <path d="M182.15,124.3s-13.41-60.67-37.7-54.51c-20.93,5.31-50.76,42.06-32.45,35.35,22.4-8.21,33.33-19.03,33.17-14.68-.54,15.05,20.12,48.94,20.12,48.94l16.86-15.1Z"/>
    <path d="M203.51,129.15s27.52-37.01,30.38-56.3.74-44.98-18.91-8.6c-17.13,31.71-30.38,64.89-30.38,64.89h18.91Z"/>
    <g>
      <path d="M266.47,164.24c0,7.25-4.43,12.59-13.28,16.02,3.32,5.53,5.09,8.47,5.31,8.8,1.22,2.82,1.83,6.45,1.83,10.87v3.4c-.66,11.23-5.17,20.31-13.53,27.23-6.47,5.53-13.5,9.27-21.08,11.21l-92.89-.17,22.66-77.36h110.98ZM267.47,153.04h-122.02l24.49-29.05h75.62c14.83,0,22.25,8,22.25,23.99,0,1.55-.11,3.24-.33,5.06ZM212.93,204.33c0-3.38-1.19-5.28-3.57-5.73h-26.56l-3.15,11.87h26.31c1.6,0,3.17-.62,4.69-1.87,1.52-1.25,2.28-2.67,2.28-4.27Z"/>
      <path d="M391.98,164.08l-21.42,77.53-62.26.17c-19.48,0-31.54-5.84-36.19-17.51-1.27-3.15-1.91-6.34-1.91-9.55,0-1.77.25-3.46.75-5.06l12.53-45.57h37.77l-12.12,42.17c-.55,1.94-.83,3.35-.83,4.23,0,2.27,1.13,3.74,3.4,4.4h27.23l14.28-50.8h38.76ZM331.97,124.98l-7.8,28.06h-38.27l7.97-27.89,38.1-.17ZM402.69,124.98l-7.97,28.06h-38.76l7.8-28.06h38.93Z"/>
      <path d="M517.57,164.08l-21.42,77.53-62.26.17c-19.48,0-31.54-5.84-36.19-17.51-1.27-3.15-1.91-6.34-1.91-9.55,0-1.77.25-3.46.75-5.06l12.53-45.57h37.77l-12.12,42.17c-.55,1.94-.83,3.35-.83,4.23,0,2.27,1.13,3.74,3.4,4.4h27.23l14.28-50.8h38.76ZM457.56,124.98l-7.8,28.06h-38.27l7.97-27.89,38.1-.17ZM528.28,124.98l-7.97,28.06h-38.76l7.8-28.06h38.93Z"/>
      <path d="M651.46,164.24c0,7.25-4.43,12.59-13.28,16.02,3.32,5.53,5.09,8.47,5.31,8.8,1.22,2.82,1.83,6.45,1.83,10.87v3.4c-.66,11.23-5.17,20.31-13.53,27.23-6.47,5.53-13.5,9.27-21.08,11.21l-92.89-.17,22.66-77.36h110.98ZM652.46,153.04h-122.02l24.49-29.05h75.62c14.83,0,22.25,8,22.25,23.99,0,1.55-.11,3.24-.33,5.06ZM597.92,204.33c0-3.38-1.19-5.28-3.57-5.73h-26.56l-3.15,11.87h26.31c1.6,0,3.17-.62,4.69-1.87,1.52-1.25,2.28-2.67,2.28-4.27Z"/>
      <path d="M776.97,164.08l-21.42,77.53-62.26.17c-19.48,0-31.54-5.84-36.19-17.51-1.27-3.15-1.91-6.34-1.91-9.55,0-1.77.25-3.46.75-5.06l12.53-45.57h37.77l-12.12,42.17c-.55,1.94-.83,3.35-.83,4.23,0,2.27,1.13,3.74,3.4,4.4h27.23l14.28-50.8h38.76ZM716.96,124.98l-7.8,28.06h-38.27l7.97-27.89,38.1-.17ZM787.68,124.98l-7.97,28.06h-38.76l7.8-28.06h38.93Z"/>
      <path d="M902.56,164.08l-21.42,77.53-62.26.17c-19.48,0-31.54-5.84-36.19-17.51-1.27-3.15-1.91-6.34-1.91-9.55,0-1.77.25-3.46.75-5.06l12.53-45.57h37.77l-12.12,42.17c-.55,1.94-.83,3.35-.83,4.23,0,2.27,1.13,3.74,3.4,4.4h27.23l14.28-50.8h38.76ZM842.55,124.98l-7.8,28.06h-38.27l7.97-27.89,38.1-.17ZM913.27,124.98l-7.97,28.06h-38.76l7.8-28.06h38.93Z"/>
    </g>
  </g>
</svg>
