<?xml version="1.0" encoding="UTF-8"?>
<svg 
  xmlns="http://www.w3.org/2000/svg"
  viewBox="0 0 609.12 450.47"
  fill="currentColor"
  preserveAspectRatio="xMidYMid meet">
  <rect x="130.55" width="349.7" height="326.6" fill="none"/>
  <g>
    <path d="M299.55,119.81s-13.41-60.67-37.7-54.51c-20.93,5.31-50.76,42.06-32.45,35.35,22.4-8.21,33.33-19.03,33.17-14.68-.54,15.05,20.12,48.94,20.12,48.94l16.86-15.1Z"/>
    <path d="M320.91,124.66s27.52-37.01,30.38-56.3c2.78-18.76.74-44.98-18.91-8.6-17.13,31.71-30.38,64.89-30.38,64.89h18.91Z"/>
    <path d="M383.87,159.75c0,7.25-4.43,12.59-13.28,16.02,3.32,5.53,5.09,8.47,5.31,8.8,1.22,2.82,1.83,6.45,1.83,10.87v3.4c-.66,11.23-5.17,20.31-13.53,27.23-6.47,5.53-13.5,9.27-21.08,11.21l-92.89-.17,22.66-77.36h110.98ZM384.87,148.54h-122.02l24.49-29.05h75.62c14.83,0,22.25,8,22.25,23.99,0,1.55-.11,3.24-.33,5.06ZM330.33,199.84c0-3.38-1.19-5.28-3.57-5.73h-26.56l-3.15,11.87h26.31c1.6,0,3.17-.62,4.69-1.87,1.52-1.25,2.28-2.67,2.28-4.27Z"/>
  </g>
</svg>